<svg width="32" height="32" viewBox="0 0 32 32" fill="none" xmlns="http://www.w3.org/2000/svg">
<rect width="32" height="32" rx="16" fill="#228BE6"/>
<path d="M18.4718 9.63106C18.4905 9.43398 18.5422 9.24146 18.6248 9.06158L18.7521 8.78448C19.2924 7.60848 20.9314 7.5241 21.5896 8.6384V8.6384C21.8478 9.07556 21.8836 9.60917 21.6863 10.077L20.4699 12.9603C19.6499 14.9038 19.6499 17.0962 20.4699 19.0397L21.6863 21.923C21.8836 22.3908 21.8477 22.9244 21.5896 23.3616V23.3616C20.9314 24.4759 19.2924 24.3915 18.7521 23.2155L18.6248 22.9384C18.5422 22.7585 18.4905 22.566 18.4718 22.3689L18.4209 21.8323C18.2096 19.6034 16.5276 17.7545 14.2943 17.5971C11.3108 17.3869 8.90504 17.5891 5.66795 17.6504C4.74764 17.6678 4 16.9205 4 16V16C4 15.0795 4.74764 14.3322 5.66795 14.3496C8.90504 14.4109 11.3108 14.6131 14.2943 14.4029C16.5276 14.2455 18.2096 12.3966 18.4209 10.1677L18.4718 9.63106Z" fill="white"/>
<circle cx="25" cy="16" r="3" fill="white"/>
</svg>
